# xmcd
#
# Track frame offsets: 
#        150
#        17039
#        31356
#        51428
#        65533
#        87838
#        108195
#        127207
#        147597
#        162689
#        179163
#
# Disc length: 2664 seconds
#
# Revision: 0
# Processed by: cddbd v1.5.2PL0 Copyright (c) Steve Scherf et al.
# Submitted via: ExactAudioCopyFreeDBPlugin 1.0
#
DISCID=a80a660b
DTITLE=Vanessa Collier - Meeting My Shadow
DYEAR=2017
DGENRE=Blues Rock
TTITLE0=Poisoned The Well
TTITLE1=Dig a Little Deeper
TTITLE2=When It Don't Come Easy
TTITLE3=Two Parts Sugar, One Part Lime
TTITLE4=When Love Comes To Town
TTITLE5=You're Gonna Make Me Cry
TTITLE6=Whiskey And Women
TTITLE7=Meet Me Where I'm At
TTITLE8=Cry Out
TTITLE9=Up Above My Head, I Hear Music In The Air
TTITLE10=Devil's On The Downslide
EXTD=
EXTT0=
EXTT1=
EXTT2=
EXTT3=
EXTT4=
EXTT5=
EXTT6=
EXTT7=
EXTT8=
EXTT9=
EXTT10=
PLAYORDER=
